<svg xmlns="http://www.w3.org/2000/svg" width="1327" height="654" xmlns:v="https://vecta.io/nano"><path d="M443 234c3.613 1.807 5.707 3.368 8.625 6.063l2.664 2.441L457 245l5 4.5 60 54 2.492 2.242 5.078 4.578 11.305 10.055c3.968 3.454 7.833 7.015 11.703 10.578L561 338.5c3.923 3.4 7.738 6.916 11.556 10.433a463.8 463.8 0 0 0 10.92 9.727c1.215 1.069 2.379 2.196 3.523 3.34 3.853-.262 5.899-2.443 8.625-5l2.664-2.469L601 352l5-4.5 2.5-2.25 69.992-62.992 5.078-4.578 11.305-10.055c3.968-3.454 7.833-7.015 11.703-10.578a440.06 440.06 0 0 1 10.278-9.149l5.195-4.734 1.631-1.518 3.195-3.004c2.376-2.214 4.001-3.602 7.123-4.643v287h-63V373l-14 12.5c-3.909 3.601-7.859 7.144-11.875 10.625L637 403.5l-12.016 10.766L613 425l-7.48 6.727-5.195 4.734-2.637 2.414-2.363 2.18c-2.325 1.946-4.686 3.46-7.324 4.945l-1.342-1.266-6.158-5.797-2.109-1.99a427.6 427.6 0 0 0-12.533-11.324c-2.664-2.328-5.259-4.723-7.857-7.123l-10-9c-3.391-2.938-6.7-5.961-10-9l-11.934-10.684c-3.5-3.076-6.923-6.236-10.355-9.387-2.842-2.547-5.779-4.987-8.711-7.43l-1 148h-63V234z" fill="#8d3b31"/><path d="M216 249h94v97h104v88H310v97h-94v-97H111v-88h105v-97z" fill="#fbc928"/><path d="M104 16l1 2-3.75 6.375-2.523 4.129-1.354 2.223c-28.379 47.012-45.322 102.811-32.153 157.5C71.315 211.854 82.025 233.742 97 253l1.957 2.539c4.114 5.242 8.458 10.23 12.953 15.148a171.94 171.94 0 0 1 5.152 6c2.711 3.198 5.754 5.86 8.945 8.57 1.867 1.633 3.585 3.331 5.305 5.117 4.549 4.621 9.629 8.581 14.688 12.625l2.367 1.93c6.02 4.885 12.208 9.528 18.452 14.122L172 323v1H88v130h80l3 32c6.649 45.213 21.499 89.634 48.789 126.82C222 616 222 616 222 618c-3.38-1.274-6.408-2.728-9.484-4.617l-2.559-1.571-2.707-1.687-2.814-1.749C195.719 602.908 187.298 597.081 179 591l-3.227-2.363L167 582l-1.642-1.26c-6.623-5.096-13.129-10.312-19.483-15.74l-1.554-1.325c-10.139-8.748-19.803-17.97-29.267-27.436l-5.251-5.211c-6-5.97-11.639-12.015-16.909-18.646-1.6-2.013-3.236-3.961-4.94-5.885C79.958 497.464 72.885 487.897 66 478l-1.335-1.909C43.089 445.074 27.161 411.683 15 376l-.765-2.212c-3.534-10.391-5.684-21.124-7.923-31.85l-.457-2.173c-4.457-21.335-6.07-42.544-6.043-64.327l.002-2.686C-.162 259.737.09 246.896 2 234l.407-2.82C7.849 194.288 18.422 159 34.022 125.132l2.802-6.222C51.93 85.412 73.074 54.59 96 26l2.461-3.086L104 16z" fill="#ef8232"/><path d="M1185 250h113l.098 61.439.053 37.63.037 27.417.023 14.488c.23 78.602.23 78.602-23.965 104.003-20.078 19.949-49.37 26.079-76.82 26.227l-2.662.021-8.451.026-2.913.002c-29.305-.033-60.579-2.567-83.399-23.252l-2.223-1.91c-16.371-15.023-22.922-37.549-24.777-59.09-.116-2.92-.118-5.832-.098-8.754l.003-2.117.032-7.692L1073 401h63l1 27c1.208 7.914 2.191 13.994 6.914 20.449C1145 450 1145 450 1146 453c2.181 1.025 2.181 1.025 5 2l5.547 3c8.578 3.497 17.38 3.341 26.481 3.316l7.003.046c12.35.052 24.643-1.138 34.449-9.572 5.462-6.431 8.619-14.649 8.678-23.016l.03-3.204.017-3.498.03-3.696.068-10.022.076-10.478.138-19.836.16-22.585L1234 309h-49v-59z" fill="#8c3b30"/><path d="M722.813 1.938l3.661.226 3.296.239 2.8.203c2.494.405 4.251 1.141 6.43 2.395l-3.3.212C687.065 8.368 639.312 13.868 592 26l-3.56.909c-67.046 17.325-131.043 45.589-188.718 83.948l-4.785 3.136c-18.877 12.362-36.664 26.23-54.108 40.515l-4.868 3.934c-5.938 4.783-11.586 9.804-17.172 14.988-2.334 2.151-4.697 4.25-7.102 6.32-3.088 2.674-5.963 5.501-8.822 8.417-1.761 1.73-3.575 3.333-5.456 4.931-5.048 4.391-9.754 9.1-14.473 13.84l-2.604 2.592c-4.487 4.494-8.832 9.05-12.957 13.879-3.087 3.567-3.087 3.567-6.237 3.832l-3.701-.013-2.073.001-6.655-.032-4.104-.006-15.232-.064L195 227v84c-3 1-3 1-4.799.386l-2.017-1.054-2.289-1.189-2.458-1.33-2.551-1.367C166.764 298.73 154.021 289.664 142 279l-3.875-3.187c-3.778-3.26-6.929-6.993-10.125-10.812l-2.523-2.969C114 248.449 114 248.449 114 245l2.535-.262c33.348-4.025 59.163-25.909 83.697-47.209l5.408-4.639 15.547-13.578c3.335-3.03 6.745-5.919 10.25-8.75 3.803-3.076 7.463-6.25 11.063-9.562 4.42-4.063 8.968-7.9 13.641-11.668l7.393-6.216c7.461-6.406 15.22-12.371 23.065-18.295l7.733-5.923C303.374 111.942 312.386 105.149 322 99l4.395-2.906C347.846 81.921 370.034 69.512 393 58l2.707-1.359c84.643-42.176 181.523-57.83 327.106-54.703z" fill="#ec8132"/><path d="M986 250h63v271h-63V405H862v-58h124v-97z" fill="#8e3c31"/><path d="M775 250h63v212h41v59H775V250z" fill="#ed942c"/><path d="M182.867 96.965c12.453 9.538 20.987 22.027 23.283 37.632 2.056 16.762-1.506 31.332-11.943 44.81C183.749 191.697 169.199 200.178 153 202c-20.579 1.452-38.558-2.715-54.531-16.551-10.863-10.777-17.554-23.996-17.849-39.336.036-15.872 4.269-30.351 15.353-42.211 24.081-22.597 59.71-25.567 86.895-6.937z" fill="#f9c728"/><path d="M240 370l-.937 8.75-.264 2.5-.264 2.422-.238 2.222c-.295 2.088-.783 4.063-1.297 6.106l-.125 5.188-.008 2.668c-.106 2.127-.106 2.127 1.133 3.145 4.468-.149 7.042-.383 10.813-2.812 3.207-4.673 4.107-9.68 5.188-15.187 6.066-.135 11.825.361 17.828 1.207l2.762.382 5.738.81 8.781 1.205 5.594.791 2.645.351c7.45 1.096 7.45 1.096 10.652 4.255-.375 2.938-.375 2.938-1 6-6.812 3.406-17.431.168-24.562-1l-3.635-.578L270 397v2l6.961.965 5.986.831c4.703.648 9.397 1.263 14.123 1.709l2.313.227 4.248.358c4.581.445 7.048 1.755 10.369 4.911-.375 2.438-.375 2.438-1 5-7.524 3.762-19.608.258-27.5-.937l-3.82-.553c-9.224-1.358-9.224-1.358-12.68-2.51l1 2c2.435.664 2.435.664 5.375 1.063l3.305.508c2.943.381 5.862.652 8.82.867 15.152 1.215 15.152 1.215 18.5 4.563.263 3.948.09 6.604-2 10h-4l-.812 1.875C298 432 298 432 295 434c-4.075.34-5.53.313-9-2l-.25 3.188c-.826 4.198-1.528 6.014-4.75 8.813-3.804.4-6.377.208-10-1l-1.562 2c-2.437 2-2.437 2-5.937 2.563-3.5-.562-3.5-.562-5.937-2.875C256 442 256 442 256 439l-3.187.75c-3.812.25-3.812.25-6.687-1.5C244 436 244 436 243 433c-2.427-2.427-4.424-2.604-7.714-3.241-11.293-2.204-19.214-6.16-26.13-15.669-4.045-7.31-4.729-16.504-2.469-24.531.95-2.023 2.005-3.748 3.313-5.559l1.25-1.824c4.232-5.542 10.28-9.854 16.996-11.84 3.921-.478 7.809-.413 11.754-.336z" fill="#f58736"/><path d="M290 348c7.031 4.353 12.107 9.494 15.313 17.125 1.468 8.275 1.226 15.898-1.312 23.875l-12.375-1.375-3.504-.383c-6.791-.767-13.449-1.757-20.121-3.242 2.176-2.176 3.887-2.898 6.688-4.125 7.257-3.555 12.437-9.263 15.313-16.875.041-1.666.048-3.334 0-5l-.777 2.344c-3.272 8.901-7.288 14.604-15.828 18.996-6.66 2.7-13.254 3.411-20.395 3.66-1.175 3.357-2.146 6.649-2.875 10.125-.903 3.627-1.911 5.732-5.125 7.875-3.25.25-3.25.25-6 0-.232-7.59.345-14.669 1.75-22.125l.477-2.801c1.678-9.152 4.628-17.763 11.773-24.074 2.89-1.925 5.852-3.538 9-5l2.391-1.117c8.017-2.712 18.029-1.452 25.609 2.117z" fill="#913f33"/><path d="M632 580h16l3.5 11.813 1.012 3.393.957 3.252.889 2.999C655 604 655 604 655 607h2l.262-1.844c1.396-8.711 4.017-16.778 6.738-25.156h16v45h-10l-2-25-3.859 14.958-.731 2.815-.746 2.888C662 623 662 623 661 625h-10c-2.313-6.475-4.056-12.995-5.642-19.678-.598-3.447-.598-3.447-2.358-6.322l-1 26h-10v-45z" fill="#77787a"/><path d="M584 580l15.125-.187 4.739-.083 3.769-.023 3.84-.048c3.87.374 6.24 1.295 9.527 3.341 2.955 4.333 3.566 7.811 3 13-2.015 4.978-5.655 7.131-10 10l2.199 2.078c2.957 2.958 5.278 6.214 7.613 9.672l1.232 1.785C628 623.856 628 623.856 628 625c-4.659 1.082-8.373 1.328-13 0-3.167-2.896-5.448-6.409-7.688-10.045l-1.362-2.162-1.146-1.984c-2.41-2.668-2.41-2.668-9.803-4.809v19h-11v-45zm11 8v10l5.688.125 3.199.07c3.178-.199 5.314-.694 8.113-2.195.894-2.548.894-2.548 1-5-4.067-2.918-6.849-3.338-11.812-3.187l-3.52.082L595 588z" fill="#787a7c"/><path d="M837 580h11c2.844 3.156 4.463 5.407 6.375 9.063l2.898 5.098 1.232 2.301c1.951 3.315 4.259 6.409 6.495 9.539l1-26h10v45c-11 0-11 0-13.508-1.914l-1.617-2.711-1.883-2.996L857 614l-3.652-5.614L848 600l-1 25h-10v-45z" fill="#76787a"/><path d="M805.875 578.563l2.146.025c6.695.217 10.855 1.506 15.713 6.026 5.914 6.351 6.687 12.722 6.504 21.199-.5 6.688-2.154 10.496-7.113 15.063-6.252 5.272-12.345 5.737-20.316 5.496-6.302-.614-11.355-2.445-15.492-7.379-4.94-7.586-4.977-15.188-4.316-23.992 1.793-6.461 5.954-11.165 11.672-14.609 3.82-1.596 7.129-1.889 11.203-1.828zm-10.312 13.813C793.185 597.89 793.27 603.087 794 609c1.835 4.258 3.289 5.554 7.188 8 4.805 1.26 8.254.966 12.813-1 4.319-4.211 5.172-7.928 5.313-13.812-.063-5.228-.477-8.352-4.312-12.187-7.199-4.27-13.515-3.396-19.437 2.375z" fill="#77797a"/><path d="M292 347l2.066 1.25c6.324 4.224 11.515 10.494 13.934 17.75.06 1.896.061 3.795.027 5.691l-.037 3.361-.117 7.031-.033 3.357-.051 3.084c-.041 2.651-.041 2.651 2.211 4.474.25 3 .25 3 0 6l-2 2 2.875 1.25C314 404 314 404 315.438 405.813c.804 3.125.542 5.117-.437 8.188-2.408 1.852-3.927 3-7 3l.75 2.75c.25 3.25.25 3.25-1.687 5.625L305 427l-2-2 2-1v-6c-6.738-1.87-13.199-3.261-20.176-3.75-4.987-.441-9.9-1.365-14.824-2.25l-1-3 1.877.26 8.561 1.178 2.951.408c12.29 1.717 12.29 1.717 24.674 2.217l3.41-.027L313 413c.334-2.374.334-2.374 0-5-2.761-2.584-4.962-3.43-8.676-3.879l-2.739-.35-2.897-.333-2.964-.373L287 402l-8.75-1.125-3.547-.445C272 400 272 400 270 399v-2c6.403.446 12.719 1.074 19.063 2.063 6.03.905 11.85 1.161 17.938.938.25-2.916.25-2.916 0-6-3.051-2.034-4.402-2.39-7.93-2.87l-3.033-.424-3.267-.433-3.35-.462-10.607-1.436-7.186-.984L254 385l-.374 2.515-.513 3.29-.499 3.265c-.756 3.604-1.814 5.53-4.615 7.93-3.379 1.819-6.176 2.413-10 2-2-2-2-2-2.266-3.974.043-6.726.963-13.061 2.266-19.651l.578-3.043L240 370c-10.389.868-18.729 2.425-26.098 10.219-6.72 8.279-7.857 15.177-6.902 25.781 2.229 8.339 7.373 14.381 14.655 18.836 4.092 2.031 8.37 2.725 12.845 3.476l2.781.51L244 430c-4.622 3.081-8.695 2.02-14 1-8.775-2.657-16.678-6.544-21.562-14.566-4.392-8.573-6.012-16.641-3.789-26.23 3.557-9.79 9.644-15.522 18.854-20.106 5.854-2.621 11.213-2.822 17.498-2.097l.375-2.262c2.031-8.897 9.377-15.431 16.832-20.129 10.017-4.847 24.419-4.744 33.793 1.391zm-44.75 10.938c-7.555 11.524-8.73 29.76-8.25 43.063 2.788.503 2.788.503 6 0 5.006-4.21 5.783-8.354 6.641-14.707C252 384 252 384 253 383l5.371-.594c6.849-.681 12.897-1.304 18.629-5.406l2.074-1.395c6.158-4.678 8.47-10.416 10.926-17.605-.25 6.999-2.163 10.943-7 16-4.579 4.106-9.259 6.847-15 9 3.466 2.311 5.641 2.542 9.75 3.07l1.983.26 4.146.529 6.34.816c6.868.959 6.868.959 13.781 1.324 3.027-8.135 3.671-18.119.039-26.164-4.538-8.019-9.877-13.577-18.664-16.648-14.704-3.894-28.272.034-38.125 11.75z" fill="#faeeda"/><path d="M1125.313 578.75l3.926-.078c5.169.451 8.42 1.986 12.074 5.641 1.864 2.969 2.365 5.223 2.688 8.688h-11l-1-4c-7.028-1.039-7.028-1.039-14 0 .205 1.968.205 1.968 1 4 1.689 1.036 1.689 1.036 3.824 1.563l2.369.727 2.494.711c13.138 3.835 13.138 3.835 16.668 8.973 1.478 4.649 1.347 9.363-.543 13.84-2.856 3.447-5.546 5.765-9.812 7.188-17.903 1.215-17.903 1.215-24-4-2.575-3.026-3.873-4.86-4.312-8.812C1106 611 1106 611 1107 610c3.069-.492 5.943-.596 9 0 1.381 1.967 2.715 3.969 4 6 3.747 1.411 7.09 1.213 10.938.313 2.237-1.135 2.237-1.135 2.875-3.437L1134 611c-4.688-3.177-9.697-4.487-15.117-5.842-5.393-1.521-7.739-3.493-10.883-8.158-.941-3.574-1.211-6.018-.437-9.625 4.233-6.994 9.907-8.532 17.75-8.625z" fill="#76787a"/><path d="M266 416.563c3 .438 3 .438 4.875 2 2.961 2.003 4.834 1.227 8.234.629 2.467-.25 3.778.601 5.891 1.809 1.887-.367 1.887-.367 4-1 6.272-.56 6.272-.56 9.438 1.875C300 424 300 424 300 426h5l-1 2h-4l-.812 1.875C298 432 298 432 295 434c-4.075.34-5.53.313-9-2l-.25 3.188c-.826 4.198-1.528 6.014-4.75 8.813-3.804.4-6.377.208-10-1l-1.562 2c-2.437 2-2.437 2-5.937 2.563-3.5-.562-3.5-.562-5.937-2.875C256 442 256 442 256 439l-3.187.75c-3.812.25-3.812.25-6.687-1.5C244 436 244 436 243 433l-2-2h3l-.312-2.687C244 425 244 425 246.063 422.125c3.633-2.628 5.544-2.613 9.938-2.125l3 1 1.625-2c2.375-2 2.375-2 5.375-2.437z" fill="#fbf5e9"/><path d="M933 580h37v8h-26v10h24v8h-24v11h26v8h-37v-45z" fill="#7c7e80"/><path d="M488 580h10v18h18v-18h11v45h-11v-19h-18v19h-10v-45z" fill="#7b7d7f"/><path d="M1023 580h36v8h-26v10h24v8h-24v11h27v8h-37v-45z" fill="#818385"/><path d="M704.504 579.902l3.059.035 3.066.027L713 580l1.313 2.978 4.875 11.054 2.101 4.763 2.041 4.627 1.983 4.499 5.171 11.552C732 623 732 623 732 625h-12c-3-6.625-3-6.625-3-10h-19l-3 9c-1 1-1 1-3.504 1.098l-3.059-.035-3.066-.027L683 625c3.711-10.481 7.935-20.722 12.313-30.937l.825-1.931c5.177-12.105 5.177-12.105 8.367-12.23zM707 593l-2.5 5.313-1.406 2.988c-1.282 2.677-1.282 2.677-1.094 5.699h11c-2.314-7.068-2.314-7.068-5-14h-1zm-158-13h12l6.671 15.369 2.267 5.22 3.269 7.537 1.014 2.327c2.076 4.801 3.979 9.636 5.779 14.548h-12l-4-9h-18l-4 9h-11c1.951-6.041 4.107-11.907 6.574-17.754l.996-2.383 3.117-7.426 2.127-5.08L549 580zm5 13l-5 14h12l-2.375-6.437-1.336-3.621c-.96-3.043-.96-3.043-3.289-3.941z" fill="#797b7d"/><path d="M978 580l14.125-.25 4.422-.11 3.523-.03 3.586-.063c4.037.548 6.172 1.95 9.343 4.454 3.279 4.58 2.709 10.643 2 16-1.885 3.936-4.918 6.523-9 8-2.923.238-5.82.188-8.75.125L989 608v17h-11v-45zm11 8v12c7.212.249 7.212.249 14-2 1.728-2.278 1.728-2.278 2-5-1.01-2.346-1.01-2.346-3-4-2.957-.983-5.649-1.108-8.75-1.062L989 588zm-546-8l14.125-.25 4.422-.11 3.523-.03 3.586-.063c4.037.548 6.172 1.95 9.343 4.454 3.279 4.58 2.709 10.643 2 16-1.885 3.936-4.918 6.523-9 8-2.923.238-5.82.188-8.75.125L454 608v17h-11v-45zm11 8v12c7.212.249 7.212.249 14-2 1.728-2.278 1.728-2.278 2-5-1.01-2.346-1.01-2.346-3-4-2.957-.983-5.649-1.108-8.75-1.062L454 588z" fill="#797a7c"/><path d="M757.313 578.75l3.926-.078c5.306.463 8.51 2.299 12.574 5.641 2.445 3.004 2.921 4.872 3.188 8.688-3.357.658-6.574 1.143-10 1-2.75-2.375-2.75-2.375-5-5-3.947-1.373-5.737-1.083-9.75.188-3.439 1.918-4.005 2.275-5.25 5.813-.355 3.336-.355 3.336-.312 6.938l-.051 3.652c.389 3.653 1.166 5.504 3.363 8.41 3.077 1.88 4.935 2.001 8.563 1.938 4.105-1.119 5.196-2.402 7.438-5.937l1-2c3.469.458 6.674.891 10 2-.39 5.458-2.155 8.155-6 12-7.108 4.316-15.554 4.33-23.543 2.379C742.2 622.091 738.783 617.93 736 613c-2.534-7.306-2.133-16.594 1.063-23.562 4.68-8.107 11.139-10.579 20.25-10.687zm530.136 3.043c3.577 2.784 5.88 5.678 6.551 10.207-7.238 2.693-7.238 2.693-11 2l-1.875-2.437c-1.968-2.856-1.968-2.856-5.5-3.562-4.216 0-6.185.576-9.625 3-3.618 4.945-3.691 10.101-3 16 1.327 4.053 2.304 5.521 5.813 7.938 3.686 1.229 5.506 1.263 9.188.063 2.586-2.155 4.126-4.189 6-7l4.438.813 2.496.457 2.066.73 1 3c-2.986 5.494-6.964 9.988-13 12-15.255 1.267-15.255 1.267-21.422-3.52L1258 620l-1.516-1.387c-4.629-4.855-5.288-10.143-5.797-16.551.24-7.208 2.681-13.4 7.672-18.621 7.54-6.625 20.649-6.764 29.09-1.648zm-368 0c3.577 2.784 5.88 5.678 6.551 10.207-7.238 2.693-7.238 2.693-11 2l-1.875-2.437c-1.968-2.856-1.968-2.856-5.5-3.562-4.216 0-6.185.576-9.625 3-3.618 4.945-3.691 10.101-3 16 1.327 4.053 2.304 5.521 5.813 7.938 3.686 1.229 5.506 1.263 9.188.063 2.586-2.155 4.126-4.189 6-7l4.438.813 2.496.457L925 610l1 3c-2.986 5.494-6.964 9.988-13 12-15.255 1.267-15.255 1.267-21.422-3.52L890 620l-1.516-1.387c-4.629-4.855-5.288-10.143-5.797-16.551.24-7.208 2.681-13.4 7.672-18.621 7.54-6.625 20.649-6.764 29.09-1.648z" fill="#767779"/><path d="M1212 580h11v37h24v8h-35v-45z" fill="#787a7b"/><path d="M1171 580h11v37h24v8h-35v-45z" fill="#787a7c"/><path d="M1065 580h39v8h-15v37h-10v-37h-14v-8z" fill="#7f8183"/><path d="M292.313 419.688c3.688.313 3.688.313 6.125 2.188C300 424 300 424 300 426h5l-1 2h-4l-.812 1.875C298 432 298 432 295 434c-4.075.34-5.53.313-9-2l-.187 3.188c-.947 4.442-2.404 5.928-5.812 8.813v-2l-2.312.188C275 442 275 442 273.188 441c-2.553-4.299-1.356-9.253-.312-13.875C274 424 274 424 276 422c2.785-.379 2.785-.379 6.063-.562 3.963-.231 6.538-1.4 10.25-1.75z" fill="#f7ecdb"/><path d="M279 343v1l-3 .516c-10.947 1.97-21.472 4.582-28.219 14.227-2.728 4.98-3.895 10.293-5.07 15.816L242 377l-2 1v-8c-10.389.868-18.729 2.425-26.098 10.219-6.72 8.279-7.857 15.177-6.902 25.781 2.229 8.339 7.373 14.381 14.655 18.836 4.092 2.031 8.37 2.725 12.845 3.476l2.781.51L244 430c-4.622 3.081-8.695 2.02-14 1-8.775-2.657-16.678-6.544-21.562-14.566-4.392-8.573-6.012-16.641-3.789-26.23 3.557-9.79 9.644-15.522 18.854-20.106 5.854-2.621 11.213-2.822 17.498-2.097l.375-2.262c1.85-8.104 8.091-14.013 14.625-18.738 7.417-4.393 14.552-4.477 23-4z" fill="#fdf5e2"/><path d="M266.5 418.563c2.5.438 2.5.438 4.168 2.172 2.336 3.973 1.068 7.888.332 12.266l-.418 2.547c-1.306 6.831-1.306 6.831-4.582 9.453-2.788.418-4.335.367-6.812-1-3.388-5.705-.584-13.384.863-19.363 1.33-3.694 2.529-5.388 6.449-6.074z" fill="#964636"/><path d="M279 421.75c3 .25 3 .25 5 2.25.266 2.426.266 2.426.25 5.313l.016 2.863c-.386 4.107-1.337 6.895-4.266 9.824-2.74.351-4.376.344-6.812-1-2.553-4.299-1.356-9.253-.312-13.875 1.413-3.925 1.893-5.022 6.125-5.375z" fill="#944234"/><path d="M239 374c2.095 3.395 2.121 5.639 1.688 9.563l-.328 3.176L240 390l-.562 6.25L239 401c4.798-.964 4.798-.964 8.664-3.727 1.572-2.676 1.973-4.833 2.398-7.898.727-5.164.727-5.164 2.938-7.375h7l-2 3h-4l-.297 2.449c-1.536 10.979-1.536 10.979-5.703 14.551-3.379 1.819-6.176 2.413-10 2-2.359-2.359-2.296-2.791-2.312-6 .131-8.083 1.861-16.07 3.313-24z" fill="#f3e5d5"/><path d="M255 422c2.49 2.49 2.324 3.432 2.375 6.875-.075 3.455-.191 4.832-2.062 7.813C253 438 253 438 250.375 437.875 248 437 248 437 246 435c-.601-4.044-.523-7.809 1.125-11.562 2.695-2.066 4.573-1.859 7.875-1.437z" fill="#954435"/><path d="M266 416.563c3 .438 3 .438 4.875 2 2.576 1.742 3.27 1.472 6.25 1L281 419l2 2-1.68.41c-2.301.684-4.251 1.365-6.32 2.59-1.611 3.549-1.611 3.549-2 7l-2-1 .125-3.312c.196-3.776.196-3.776-2.125-6.687-3.584-.25-3.584-.25-7 0l-.812 3.813c-.783 3.182-1.441 5.19-4.187 7.188l-1-7-5-2 3-2 2.438.625L259 421l1.938-1.937C263 417 263 417 266 416.563z" fill="#f9eede"/><path d="M297 423c1.332 5.447 1.332 5.447-.125 7.875-2.508 1.505-3.996 1.557-6.875 1.125-1.812-1.187-1.812-1.187-3-3-.375-2.562-.375-2.562 0-5 3.85-2.567 5.586-1.833 10-1z" fill="#964636"/><path d="M270 397c7.413.429 14.727 1.319 22.063 2.438l2.525.37 2.385.376 2.133.33C301 401 301 401 304 403c-7.687.422-15.039-.287-22.625-1.437l-2.694-.407c-6.397-1.013-6.397-1.013-8.681-2.155v-2z" fill="#fdf2df"/><path d="M282.563 385.813l2.4.283A311.25 311.25 0 0 1 304 389l1-2v3c-7.718 1.549-14.79.273-22.5-.937l-3.937-.592L269 387v-1c4.686-1.314 8.817-.779 13.563-.187z" fill="#fcedd6"/><path d="M306 367l2 1-.032 2.08-.093 9.295-.051 3.273-.02 3.125-.032 2.888c-.004 2.531-.004 2.531 2.227 4.338v5h-2l-.75-2.312c-1.36-2.924-2.566-3.988-5.25-5.687h3l1-23z" fill="#f9f2e7"/><path d="M104 16l1 2-4.25 7.438-1.238 2.064C95.82 33.561 95.82 33.561 93 36h-5l16-20z" fill="#93501f"/><path d="M296 422l4 2v2h5l-1 2h-4l-.812 1.875C298 432 298 432 295 434h-6l-1-2 9-1c.074-3.343.065-5.804-1-9z" fill="#fcf7eb"/><path d="M267 382v2l7 1v1c-7.044.211-13.241.08-20-2v-1c4.394-.857 8.526-1.089 13-1z" fill="#fcf5e8"/><path d="M256.625 381.875L260 382l-2 3h-4l-1 9-3 1 .375-5.375.211-3.023c.678-4.262 1.789-4.58 6.039-4.727z" fill="#f4e0c5"/><path d="M303 414h8l1 2-4 1 .75 2.75c.25 3.25.25 3.25-1.687 5.625L305 427l-2-2 2-1c.685-1.888.685-1.888 1.125-4.062l.508-2.223L307 416l-4-2z" fill="#fdeac3"/><path d="M254 420l7 2c-.615 5.538-.615 5.538-2.562 7.875L257 431l-1-7-5-2 3-2z" fill="#f3e5d4"/><path d="M249 395h3c-1.256 3.872-2.34 6.068-6 8-3.25.188-3.25.188-6 0l3-2c3.537-2.54 3.537-2.54 6-6z" fill="#fcf3e2"/><path d="M306 386h1l.938 2.938c.758 2.903.758 2.903 2.063 4.063v5h-2l-.75-2.312c-1.36-2.924-2.566-3.988-5.25-5.687h3l1-4z" fill="#fef9ed"/><path d="M304 387l1 3c-5.376.849-9.654 1.002-15 0v-1l5.313-.562 2.988-.316C301 388 301 388 304 389v-2z" fill="#f8e3c4"/><path d="M239 374c2.263 3.558 2.073 6.125 1.625 10.25l-.336 3.266L240 390c-2.263-3.558-2.073-6.125-1.625-10.25l.336-3.266L239 374z" fill="#fae8cd"/><path d="M104 16l1 2-2.937 5.125-1.715 2.758L99 28l-2-3 7-9z" fill="#4d2a10"/><path d="M236 392h1v9h6v3c-2.375.125-2.375.125-5 0-2-2-2-2-2.195-4.383l.07-2.742.055-2.758L236 392z" fill="#fadcb0"/><path d="M238.688 429.375l3.012.336L244 430c-3.549 2.366-4.576 2.109-8.687 1.625l-3.012-.336L230 431c3.549-2.366 4.576-2.109 8.688-1.625z" fill="#fef1d3"/><path d="M313 405c1.563 1.125 1.563 1.125 3 3-.312 3.188-.312 3.188-1 6l-4 1v-2h2v-8z" fill="#fef5e0"/><path d="M272.625 342.938l3.602.027L279 343v1l-14 2-1-2c2.884-1.442 5.417-1.094 8.625-1.062z" fill="#fdfaee"/><path d="M745 581l2 1-8 8-1-2c2.219-2.908 3.93-4.953 7-7z" fill="#4f5051"/><path d="M297 414l12 1-2 1v2l-10-3v-1z" fill="#fefaf3"/></svg>